<mxfile host="Electron" modified="2023-12-14T15:40:04.809Z" agent="Mozilla/5.0 (Windows NT 10.0; Win64; x64) AppleWebKit/537.36 (KHTML, like Gecko) draw.io/22.1.2 Chrome/114.0.5735.289 Electron/25.9.4 Safari/537.36" etag="IpRRdbYVsrBxBjajKmny" version="22.1.2" type="device">
  <diagram id="C5RBs43oDa-KdzZeNtuy" name="Page-1">
    <mxGraphModel dx="1349" dy="606" grid="1" gridSize="10" guides="1" tooltips="1" connect="1" arrows="1" fold="1" page="1" pageScale="1" pageWidth="827" pageHeight="1169" background="none" math="0" shadow="0">
      <root>
        <mxCell id="WIyWlLk6GJQsqaUBKTNV-0" />
        <mxCell id="WIyWlLk6GJQsqaUBKTNV-1" parent="WIyWlLk6GJQsqaUBKTNV-0" />
        <mxCell id="O6kwRCL_06sW0Yhjf2Mc-2" value="начало" style="ellipse;whiteSpace=wrap;html=1;strokeColor=#36393d;fillColor=#eeeeee;fontColor=#000000;" parent="WIyWlLk6GJQsqaUBKTNV-1" vertex="1">
          <mxGeometry x="-620" y="40" width="120" height="50" as="geometry" />
        </mxCell>
        <mxCell id="CJra_WSzJUt3smpGOyG3-4" value="Начало цикла 1&lt;br&gt;i &amp;gt; 8" style="strokeWidth=1;html=1;shape=mxgraph.flowchart.loop_limit;whiteSpace=wrap;strokeColor=#36393d;fillColor=#eeeeee;fontColor=#000000;" parent="WIyWlLk6GJQsqaUBKTNV-1" vertex="1">
          <mxGeometry x="-620" y="200" width="120" height="70" as="geometry" />
        </mxCell>
        <mxCell id="CJra_WSzJUt3smpGOyG3-6" value="" style="rounded=0;html=1;jettySize=auto;orthogonalLoop=1;fontSize=11;endArrow=block;endFill=0;endSize=8;strokeWidth=1;shadow=0;labelBackgroundColor=none;edgeStyle=orthogonalEdgeStyle;strokeColor=#36393d;fillColor=#eeeeee;fontColor=#000000;" parent="WIyWlLk6GJQsqaUBKTNV-1" edge="1">
          <mxGeometry relative="1" as="geometry">
            <mxPoint x="-380.4499999999999" y="150" as="sourcePoint" />
            <mxPoint x="-380.1799999999999" y="180" as="targetPoint" />
          </mxGeometry>
        </mxCell>
        <mxCell id="CJra_WSzJUt3smpGOyG3-8" value="A : array [1..8,1..6]&lt;br&gt;B : array [1..8]" style="shape=parallelogram;perimeter=parallelogramPerimeter;whiteSpace=wrap;html=1;fixedSize=1;strokeColor=#36393d;fillColor=#eeeeee;fontColor=#000000;" parent="WIyWlLk6GJQsqaUBKTNV-1" vertex="1">
          <mxGeometry x="-620" y="120" width="120" height="50" as="geometry" />
        </mxCell>
        <mxCell id="CJra_WSzJUt3smpGOyG3-32" value="" style="rounded=0;html=1;jettySize=auto;orthogonalLoop=1;fontSize=11;endArrow=block;endFill=0;endSize=8;strokeWidth=1;shadow=0;labelBackgroundColor=none;edgeStyle=orthogonalEdgeStyle;strokeColor=#36393d;fillColor=#eeeeee;fontColor=#000000;" parent="WIyWlLk6GJQsqaUBKTNV-1" edge="1">
          <mxGeometry relative="1" as="geometry">
            <mxPoint x="-560.34" y="90" as="sourcePoint" />
            <mxPoint x="-560.07" y="120" as="targetPoint" />
          </mxGeometry>
        </mxCell>
        <mxCell id="CJra_WSzJUt3smpGOyG3-35" value="" style="rounded=0;html=1;jettySize=auto;orthogonalLoop=1;fontSize=11;endArrow=block;endFill=0;endSize=8;strokeWidth=1;shadow=0;labelBackgroundColor=none;edgeStyle=orthogonalEdgeStyle;strokeColor=#36393d;fillColor=#eeeeee;fontColor=#000000;" parent="WIyWlLk6GJQsqaUBKTNV-1" edge="1">
          <mxGeometry relative="1" as="geometry">
            <mxPoint x="-560.3199999999999" y="170" as="sourcePoint" />
            <mxPoint x="-560.05" y="200" as="targetPoint" />
          </mxGeometry>
        </mxCell>
        <mxCell id="Kg9K-jLbq-SvP9runcIR-1" value="" style="rounded=0;html=1;jettySize=auto;orthogonalLoop=1;fontSize=11;endArrow=block;endFill=0;endSize=8;strokeWidth=1;shadow=0;labelBackgroundColor=none;edgeStyle=orthogonalEdgeStyle;strokeColor=#36393d;fillColor=#eeeeee;fontColor=#000000;" parent="WIyWlLk6GJQsqaUBKTNV-1" edge="1">
          <mxGeometry relative="1" as="geometry">
            <mxPoint x="-560.5000000000002" y="370" as="sourcePoint" />
            <mxPoint x="-560.2300000000002" y="400" as="targetPoint" />
          </mxGeometry>
        </mxCell>
        <mxCell id="Kg9K-jLbq-SvP9runcIR-18" value="конец" style="ellipse;whiteSpace=wrap;html=1;strokeColor=#36393d;fillColor=#eeeeee;fontColor=#000000;" parent="WIyWlLk6GJQsqaUBKTNV-1" vertex="1">
          <mxGeometry x="-440" y="530" width="120" height="50" as="geometry" />
        </mxCell>
        <mxCell id="SMtHybRJAJT8ehfguQuV-20" value="" style="rounded=0;html=1;jettySize=auto;orthogonalLoop=1;fontSize=11;endArrow=block;endFill=0;endSize=8;strokeWidth=1;shadow=0;labelBackgroundColor=none;edgeStyle=orthogonalEdgeStyle;strokeColor=#36393d;fillColor=#eeeeee;fontColor=#000000;" parent="WIyWlLk6GJQsqaUBKTNV-1" edge="1">
          <mxGeometry relative="1" as="geometry">
            <mxPoint x="-380.45000000000016" y="420" as="sourcePoint" />
            <mxPoint x="-380.45000000000016" y="450" as="targetPoint" />
          </mxGeometry>
        </mxCell>
        <mxCell id="2xioK6IHDwXSdCJLh5u1-3" value="&lt;span style=&quot;font-size: 11px;&quot;&gt;Вывод B&lt;/span&gt;" style="shape=parallelogram;perimeter=parallelogramPerimeter;whiteSpace=wrap;html=1;fixedSize=1;strokeColor=#36393d;fillColor=#eeeeee;fontColor=#000000;" parent="WIyWlLk6GJQsqaUBKTNV-1" vertex="1">
          <mxGeometry x="-440" y="450" width="120" height="50" as="geometry" />
        </mxCell>
        <mxCell id="igNxfUoESS7doEl0TZz6-1" value="" style="rounded=0;html=1;jettySize=auto;orthogonalLoop=1;fontSize=11;endArrow=block;endFill=0;endSize=8;strokeWidth=1;shadow=0;labelBackgroundColor=none;edgeStyle=orthogonalEdgeStyle;strokeColor=#36393d;fillColor=#eeeeee;fontColor=#000000;" parent="WIyWlLk6GJQsqaUBKTNV-1" edge="1">
          <mxGeometry relative="1" as="geometry">
            <mxPoint x="-560.5000000000001" y="270" as="sourcePoint" />
            <mxPoint x="-560.2300000000001" y="300" as="targetPoint" />
          </mxGeometry>
        </mxCell>
        <mxCell id="pQWmkz21Sc7zjETpaTld-0" value="B[i] := 1" style="rounded=0;whiteSpace=wrap;html=1;strokeColor=#36393d;fillColor=#eeeeee;fontColor=#000000;" parent="WIyWlLk6GJQsqaUBKTNV-1" vertex="1">
          <mxGeometry x="-440" y="180" width="120" height="40" as="geometry" />
        </mxCell>
        <mxCell id="pQWmkz21Sc7zjETpaTld-4" value="" style="rounded=0;html=1;jettySize=auto;orthogonalLoop=1;fontSize=11;endArrow=block;endFill=0;endSize=8;strokeWidth=1;shadow=0;labelBackgroundColor=none;edgeStyle=orthogonalEdgeStyle;strokeColor=#36393d;fillColor=#eeeeee;fontColor=#000000;" parent="WIyWlLk6GJQsqaUBKTNV-1" edge="1">
          <mxGeometry relative="1" as="geometry">
            <mxPoint x="-380.4500000000001" y="320" as="sourcePoint" />
            <mxPoint x="-380.1800000000001" y="350" as="targetPoint" />
          </mxGeometry>
        </mxCell>
        <mxCell id="J6JxwyeTmuK8CFhQOKK1-3" value="Начало цикла 2&lt;br&gt;j &amp;gt; 6" style="strokeWidth=1;html=1;shape=mxgraph.flowchart.loop_limit;whiteSpace=wrap;strokeColor=#36393d;fillColor=#eeeeee;fontColor=#000000;" parent="WIyWlLk6GJQsqaUBKTNV-1" vertex="1">
          <mxGeometry x="-620" y="300" width="120" height="70" as="geometry" />
        </mxCell>
        <mxCell id="J6JxwyeTmuK8CFhQOKK1-4" value="&lt;font style=&quot;&quot;&gt;Считывание значения A[i,j]&lt;br style=&quot;border-color: var(--border-color);&quot;&gt;с клавиатуры&lt;br&gt;&lt;/font&gt;" style="shape=parallelogram;perimeter=parallelogramPerimeter;whiteSpace=wrap;html=1;fixedSize=1;strokeColor=#36393d;fillColor=#eeeeee;fontColor=#000000;" parent="WIyWlLk6GJQsqaUBKTNV-1" vertex="1">
          <mxGeometry x="-620" y="400" width="120" height="50" as="geometry" />
        </mxCell>
        <mxCell id="J6JxwyeTmuK8CFhQOKK1-7" value="" style="rounded=0;html=1;jettySize=auto;orthogonalLoop=1;fontSize=11;endArrow=block;endFill=0;endSize=8;strokeWidth=1;shadow=0;labelBackgroundColor=none;edgeStyle=orthogonalEdgeStyle;strokeColor=#36393d;fillColor=#eeeeee;fontColor=#000000;exitX=1;exitY=0.5;exitDx=0;exitDy=0;entryX=0.5;entryY=0;entryDx=0;entryDy=0;" parent="WIyWlLk6GJQsqaUBKTNV-1" source="TEse0uOKwpzCUFsoXq1P-5" target="TEse0uOKwpzCUFsoXq1P-0" edge="1">
          <mxGeometry relative="1" as="geometry">
            <mxPoint x="-240.0000000000001" y="110" as="sourcePoint" />
            <mxPoint x="-239.73000000000013" y="140" as="targetPoint" />
          </mxGeometry>
        </mxCell>
        <mxCell id="TEse0uOKwpzCUFsoXq1P-0" value="B[i] := -1" style="rounded=0;whiteSpace=wrap;html=1;strokeColor=#36393d;fillColor=#eeeeee;fontColor=#000000;" parent="WIyWlLk6GJQsqaUBKTNV-1" vertex="1">
          <mxGeometry x="-290" y="180" width="120" height="40" as="geometry" />
        </mxCell>
        <mxCell id="TEse0uOKwpzCUFsoXq1P-2" value="Конец цикла 1" style="strokeWidth=1;html=1;shape=mxgraph.flowchart.loop_limit;whiteSpace=wrap;strokeColor=#36393d;fillColor=#eeeeee;fontColor=#000000;direction=west;" parent="WIyWlLk6GJQsqaUBKTNV-1" vertex="1">
          <mxGeometry x="-440" y="350" width="120" height="70" as="geometry" />
        </mxCell>
        <mxCell id="TEse0uOKwpzCUFsoXq1P-4" value="" style="rounded=0;html=1;jettySize=auto;orthogonalLoop=1;fontSize=11;endArrow=block;endFill=0;endSize=8;strokeWidth=1;shadow=0;labelBackgroundColor=none;edgeStyle=orthogonalEdgeStyle;strokeColor=#36393d;fillColor=#eeeeee;fontColor=#000000;exitX=0.5;exitY=1;exitDx=0;exitDy=0;" parent="WIyWlLk6GJQsqaUBKTNV-1" source="J6JxwyeTmuK8CFhQOKK1-4" edge="1">
          <mxGeometry relative="1" as="geometry">
            <mxPoint x="-560.0000000000001" y="720" as="sourcePoint" />
            <mxPoint x="-380" y="80" as="targetPoint" />
            <Array as="points">
              <mxPoint x="-560" y="480" />
              <mxPoint x="-479" y="480" />
              <mxPoint x="-479" y="40" />
              <mxPoint x="-379" y="40" />
              <mxPoint x="-379" y="80" />
            </Array>
          </mxGeometry>
        </mxCell>
        <mxCell id="TEse0uOKwpzCUFsoXq1P-5" value="&lt;font style=&quot;&quot;&gt;&lt;font style=&quot;font-size: 12px;&quot;&gt;A[i,j] &amp;gt; 0&lt;/font&gt;&lt;br&gt;&lt;/font&gt;" style="rhombus;whiteSpace=wrap;html=1;shadow=0;fontFamily=Helvetica;fontSize=12;align=center;strokeWidth=1;spacing=6;spacingTop=-4;strokeColor=#36393d;fillColor=#eeeeee;fontColor=#000000;" parent="WIyWlLk6GJQsqaUBKTNV-1" vertex="1">
          <mxGeometry x="-440" y="80" width="120" height="70" as="geometry" />
        </mxCell>
        <mxCell id="TEse0uOKwpzCUFsoXq1P-6" value="" style="rounded=0;html=1;jettySize=auto;orthogonalLoop=1;fontSize=11;endArrow=block;endFill=0;endSize=8;strokeWidth=1;shadow=0;labelBackgroundColor=none;edgeStyle=orthogonalEdgeStyle;strokeColor=#36393d;fillColor=#eeeeee;fontColor=#000000;" parent="WIyWlLk6GJQsqaUBKTNV-1" edge="1">
          <mxGeometry relative="1" as="geometry">
            <mxPoint x="-380.4499999999999" y="220" as="sourcePoint" />
            <mxPoint x="-380.1799999999999" y="250" as="targetPoint" />
          </mxGeometry>
        </mxCell>
        <mxCell id="TEse0uOKwpzCUFsoXq1P-7" value="Конец цикла 2" style="strokeWidth=1;html=1;shape=mxgraph.flowchart.loop_limit;whiteSpace=wrap;strokeColor=#36393d;fillColor=#eeeeee;fontColor=#000000;direction=west;" parent="WIyWlLk6GJQsqaUBKTNV-1" vertex="1">
          <mxGeometry x="-440" y="250" width="120" height="70" as="geometry" />
        </mxCell>
        <mxCell id="TEse0uOKwpzCUFsoXq1P-8" value="" style="rounded=0;html=1;jettySize=auto;orthogonalLoop=1;fontSize=11;endArrow=block;endFill=0;endSize=8;strokeWidth=1;shadow=0;labelBackgroundColor=none;edgeStyle=orthogonalEdgeStyle;strokeColor=#36393d;fillColor=#eeeeee;fontColor=#000000;" parent="WIyWlLk6GJQsqaUBKTNV-1" edge="1">
          <mxGeometry relative="1" as="geometry">
            <mxPoint x="-380.45000000000016" y="500" as="sourcePoint" />
            <mxPoint x="-380.45000000000016" y="530" as="targetPoint" />
          </mxGeometry>
        </mxCell>
        <mxCell id="dNVw0XJFLUaRuQqd2Gph-0" value="" style="strokeWidth=1;html=1;shape=mxgraph.flowchart.annotation_1;align=left;pointerEvents=1;direction=east;strokeColor=#36393d;rotation=-180;" parent="WIyWlLk6GJQsqaUBKTNV-1" vertex="1">
          <mxGeometry x="-680" y="125" width="10" height="40" as="geometry" />
        </mxCell>
        <mxCell id="dNVw0XJFLUaRuQqd2Gph-1" value="объявление массива A и B" style="text;html=1;strokeColor=none;fillColor=none;align=center;verticalAlign=middle;whiteSpace=wrap;rounded=0;fontColor=#36393d;" parent="WIyWlLk6GJQsqaUBKTNV-1" vertex="1">
          <mxGeometry x="-790" y="130" width="120" height="30" as="geometry" />
        </mxCell>
        <mxCell id="dNVw0XJFLUaRuQqd2Gph-2" value="" style="endArrow=none;dashed=1;html=1;rounded=0;exitX=1;exitY=0.5;exitDx=0;exitDy=0;entryX=0;entryY=0.5;entryDx=0;entryDy=0;" parent="WIyWlLk6GJQsqaUBKTNV-1" edge="1">
          <mxGeometry width="50" height="50" relative="1" as="geometry">
            <mxPoint x="-670" y="144.60000000000002" as="sourcePoint" />
            <mxPoint x="-610" y="144.60000000000002" as="targetPoint" />
            <Array as="points">
              <mxPoint x="-640" y="144.60000000000002" />
            </Array>
          </mxGeometry>
        </mxCell>
        <mxCell id="mOOivsLftcujpm0u-Rkx-1" value="Да" style="text;html=1;strokeColor=none;fillColor=none;align=center;verticalAlign=middle;whiteSpace=wrap;rounded=0;" parent="WIyWlLk6GJQsqaUBKTNV-1" vertex="1">
          <mxGeometry x="-430" y="140" width="60" height="30" as="geometry" />
        </mxCell>
        <mxCell id="mOOivsLftcujpm0u-Rkx-3" value="Нет" style="text;html=1;strokeColor=none;fillColor=none;align=center;verticalAlign=middle;whiteSpace=wrap;rounded=0;" parent="WIyWlLk6GJQsqaUBKTNV-1" vertex="1">
          <mxGeometry x="-290" y="90" width="60" height="30" as="geometry" />
        </mxCell>
        <mxCell id="mOOivsLftcujpm0u-Rkx-4" value="" style="endArrow=none;html=1;rounded=0;entryX=0.5;entryY=1;entryDx=0;entryDy=0;" parent="WIyWlLk6GJQsqaUBKTNV-1" target="TEse0uOKwpzCUFsoXq1P-0" edge="1">
          <mxGeometry width="50" height="50" relative="1" as="geometry">
            <mxPoint x="-380" y="240" as="sourcePoint" />
            <mxPoint x="-320" y="330" as="targetPoint" />
            <Array as="points">
              <mxPoint x="-230" y="240" />
            </Array>
          </mxGeometry>
        </mxCell>
      </root>
    </mxGraphModel>
  </diagram>
</mxfile>
